<?xml version="1.0" encoding="utf-8"?>
<!-- Generator: Adobe Illustrator 16.0.0, SVG Export Plug-In . SVG Version: 6.00 Build 0)  -->
<!DOCTYPE svg PUBLIC "-//W3C//DTD SVG 1.1//EN" "http://www.w3.org/Graphics/SVG/1.1/DTD/svg11.dtd">
<svg version="1.1" id="Layer_1" xmlns="http://www.w3.org/2000/svg" xmlns:xlink="http://www.w3.org/1999/xlink" x="0px" y="0px"
	 width="375.919px" height="296.188px" viewBox="0 0 375.919 296.188" enable-background="new 0 0 375.919 296.188"
	 xml:space="preserve">
<g>
	<g>
		<path fill="#FFFFFF" d="M34.563,129.062c-0.095-14.244-0.143-25.29-0.14-33.138c0.001-7.847,0.153-13.688,0.452-17.521
			c0.299-3.835,0.797-6.271,1.495-7.313c0.697-1.041,1.72-1.91,3.07-2.606c1.294-0.861,3.212-1.475,5.756-1.843
			c2.543-0.365,5.331-0.505,8.366-0.421c3.033,0.086,6.123,0.366,9.268,0.839c3.144,0.475,5.938,1.123,8.381,1.948
			c7.925,2.741,13.714,7.836,17.367,15.285c3.652,7.447,5.308,18.208,4.968,32.279c0.025,3.791,0.011,7.673-0.044,11.647
			c-0.055,3.974-0.294,6.679-0.718,8.115c-0.675,4.345-1.798,8.676-3.366,12.993c-1.569,4.319-3.478,8.41-5.728,12.272
			c-2.249,3.864-4.745,7.386-7.485,10.566c-2.741,3.182-5.649,5.781-8.723,7.798c-1.349,0.928-3.143,1.971-5.382,3.13
			c-2.241,1.16-4.508,2.237-6.804,3.231c-2.296,0.995-4.443,1.827-6.442,2.494c-2,0.669-3.406,0.914-4.22,0.733
			c-1.354,0.18-2.805-0.245-4.355-1.275c-1.55-1.029-2.766-2.437-3.644-4.217c-0.276-0.652-0.487-1.961-0.636-3.925
			c-0.149-1.964-0.291-5.006-0.426-9.127c-0.136-4.122-0.281-9.563-0.434-16.326C34.985,147.921,34.794,139.38,34.563,129.062z
			 M81.214,119.158c-0.043-6.548-0.405-12.062-1.086-16.542c-0.679-4.479-1.814-8.179-3.405-11.103
			c-1.591-2.921-3.69-5.229-6.302-6.924c-2.611-1.693-5.87-3-9.775-3.918c-6.994-0.969-11.377-0.387-13.15,1.746
			c-0.268,0.553-0.37,5.454-0.308,14.701c0.062,9.248,0.21,19.359,0.446,30.336c0.235,10.979,0.532,21.057,0.892,30.235
			c0.358,9.179,0.784,13.967,1.274,14.361c0.436,0.459,1.101,0.544,1.993,0.252c0.891-0.29,2.875-1.358,5.95-3.204
			c3.94-1.904,7.405-4.418,10.39-7.546c2.985-3.126,5.358-6.705,7.119-10.732c1.282-2.699,2.308-5.077,3.08-7.135
			c0.771-2.057,1.38-4.193,1.826-6.408c0.445-2.216,0.74-4.726,0.884-7.534C81.184,126.938,81.242,123.409,81.214,119.158z"/>
		<path fill="#FFFFFF" d="M128.334,57.797c-0.003-0.459,0.36-0.938,1.087-1.438c0.728-0.498,1.551-0.809,2.472-0.931
			c1.78-1.156,3.589-1.9,5.429-2.23c1.838-0.331,3.004-0.298,3.495,0.096c0.439,0.92,1.161,3.455,2.163,7.604
			c1.002,4.15,2.049,8.825,3.14,14.026c1.091,5.202,2.1,10.371,3.028,15.509c0.928,5.135,1.536,9.094,1.826,11.871
			c0.013,1.896,0.55,5.304,1.612,10.221c1.061,4.919,2.071,10.158,3.03,15.723c1.115,4.854,2.122,9.593,3.02,14.215
			c0.896,4.624,1.629,8.824,2.196,12.601c0.566,3.776,0.967,7.001,1.202,9.671c0.233,2.672,0.273,4.478,0.117,5.417
			c-0.268,0.553-0.926,1.173-1.978,1.858c-1.052,0.686-2.226,1.329-3.521,1.934c-1.296,0.603-2.525,1.068-3.688,1.395
			c-1.164,0.327-1.961,0.377-2.396,0.146c-0.494-0.854-1.116-2.855-1.869-6.005c-0.752-3.146-1.363-7.306-1.83-12.476
			c-0.013-1.896-0.369-4.448-1.067-7.662c-0.699-3.213-1.273-6.226-1.726-9.04c-0.723-2.72-1.319-4.826-1.789-6.316
			c-0.471-1.489-1.032-2.536-1.687-3.139c-0.654-0.604-1.55-0.916-2.687-0.937c-1.138-0.022-2.681,0.097-4.629,0.355
			c-2.057,0.273-3.64,0.556-4.748,0.846c-1.109,0.292-1.985,0.782-2.63,1.471c-0.646,0.689-1.114,1.688-1.402,2.989
			c-0.29,1.304-0.643,3.161-1.06,5.573c-0.468,2.937-1.053,6.507-1.757,10.71c-0.703,4.204-1.263,7.742-1.676,10.613
			c-0.883,5.809-1.683,9.551-2.403,11.228c-0.72,1.678-1.973,2.634-3.759,2.871c-0.487,0.064-1.246,0.165-2.273,0.302
			c-1.028,0.137-1.759,0.233-2.191,0.291c-2.27,0.818-3.667,0.588-4.189-0.694c-0.524-1.28-0.341-4.366,0.547-9.257
			c0.407-3.848,0.962-8.089,1.662-12.724s1.482-9.251,2.345-13.85c0.863-4.599,1.768-9.016,2.715-13.253
			c0.947-4.234,1.87-7.85,2.771-10.845c0.843-3.39,1.608-6.58,2.292-9.574c0.683-2.994,1.381-6.104,2.091-9.332
			c0.709-3.227,1.484-6.778,2.326-10.656c0.84-3.876,1.813-8.39,2.916-13.538c0.408-3.849,0.967-7.271,1.679-10.269
			C127.253,60.17,127.851,58.38,128.334,57.797z M136.662,100.41c-0.016-2.354-0.182-4.788-0.496-7.306
			c-0.315-2.515-0.477-4.492-0.487-5.929c-0.006-0.918-0.311-1.826-0.912-2.725c-0.271,0.036-0.71,1.273-1.316,3.711
			c-0.607,2.438-1.224,5.223-1.854,8.351c-0.628,3.132-1.231,6.187-1.807,9.166c-0.577,2.979-0.941,5.055-1.096,6.224
			c0.01,1.437,0.19,2.248,0.544,2.43c0.353,0.184,1.667,0.123,3.939-0.179c2.222,0.222,3.522,0.223,3.9-0.001
			c0.377-0.222,0.562-1.051,0.552-2.487c-0.006-0.918-0.166-2.421-0.477-4.507C136.842,105.073,136.678,102.823,136.662,100.41z"/>
		<path fill="#FFFFFF" d="M161.047,53.28c0.162-0.021,0.689-0.135,1.582-0.339c0.893-0.205,2.365-0.559,4.421-1.062
			c2.054-0.501,4.812-1.156,8.274-1.961c3.46-0.805,7.869-1.821,13.223-3.049c0.865-0.115,2.854-0.379,5.966-0.793
			c3.111-0.413,6.454-0.857,10.025-1.331c3.299-0.611,5.856-1.022,7.669-1.235c1.813-0.21,3.127-0.113,3.943,0.296
			c0.814,0.41,1.307,1.149,1.477,2.219c0.17,1.07,0.262,2.552,0.273,4.447c0.012,1.724-0.049,3.04-0.177,3.948
			c-0.13,0.908-0.517,1.65-1.163,2.224c-0.646,0.574-1.699,1.06-3.159,1.454c-1.46,0.396-3.487,0.852-6.085,1.369
			c-2.271,0.59-4.001,1.135-5.188,1.638c-1.188,0.502-2.09,1.428-2.703,2.773c-0.615,1.347-1.021,3.369-1.219,6.068
			c-0.199,2.7-0.363,6.53-0.492,11.491c-0.252,2.909-0.432,6.453-0.538,10.634c-0.108,4.185-0.159,8.675-0.154,13.474
			c0.004,4.8,0.024,9.685,0.057,14.652c0.033,4.969,0.065,9.692,0.095,14.173c0.079,11.773,0.094,20.107,0.044,25
			c-0.048,4.894-0.288,7.599-0.717,8.115c-0.268,0.553-0.941,1.073-2.021,1.562c-1.081,0.488-2.282,0.907-3.607,1.256
			c-1.326,0.348-2.624,0.607-3.894,0.775c-1.272,0.169-2.233,0.154-2.885-0.048c-0.273-0.137-0.48-0.827-0.624-2.073
			c-0.144-1.244-0.241-3.676-0.292-7.291c-0.052-3.615-0.099-8.71-0.143-15.287c-0.044-6.576-0.102-15.292-0.174-26.147
			c-0.043-6.548-0.06-12.897-0.046-19.052c0.012-6.152,0.07-11.65,0.174-16.493c0.103-4.842,0.197-8.822,0.286-11.938
			c0.086-3.115,0.129-4.932,0.126-5.449c0.156-0.939,0.232-1.654,0.229-2.143c-0.003-0.487-0.317-0.776-0.94-0.867
			c-0.624-0.089-1.652,0.02-3.085,0.324c-1.434,0.306-3.448,0.717-6.044,1.233c-3.138,0.705-5.558,1.141-7.263,1.31
			c-1.706,0.17-2.965,0.049-3.781-0.359c-0.815-0.41-1.362-1.17-1.64-2.284c-0.279-1.112-0.505-2.605-0.68-4.479
			c-0.502-2.29-0.608-3.843-0.315-4.658C160.174,54.561,160.563,53.862,161.047,53.28z"/>
		<path fill="#FFFFFF" d="M224.606,69.07c1.633-6.942,3.747-12.657,6.345-17.141c2.597-4.484,5.81-7.899,9.641-10.249
			c2.106-0.911,4.472-1.542,7.097-1.891s5.238-0.379,7.84-0.093c2.602,0.287,5.07,0.879,7.404,1.776
			c2.335,0.897,4.267,2.136,5.795,3.714c2.123,1.559,4.033,3.835,5.732,6.827c1.697,2.995,3.215,6.875,4.546,11.642
			c0.389,1.559,0.696,3.012,0.923,4.361c0.225,1.35,0.413,3.122,0.564,5.315c0.148,2.193,0.248,5.04,0.3,8.539
			c0.05,3.5,0.096,8.179,0.135,14.037c0.036,5.458,0.053,10.012,0.05,13.662c-0.004,3.652-0.064,6.765-0.181,9.337
			c-0.119,2.574-0.281,4.737-0.485,6.488c-0.205,1.751-0.492,3.429-0.86,5.029c-1.253,6.951-3.179,12.697-5.775,17.238
			c-2.598,4.542-5.998,8.212-10.204,11.013c-1.295,0.689-3.025,1.337-5.188,1.939c-2.162,0.604-4.379,1.129-6.651,1.573
			c-2.272,0.445-4.423,0.731-6.453,0.857c-2.03,0.127-3.562-0.001-4.593-0.383c-3.859-1.729-6.977-4.347-9.355-7.854
			c-2.38-3.507-4.43-8.338-6.149-14.49c-0.497-1.486-0.86-2.918-1.085-4.297c-0.227-1.378-0.401-3.266-0.525-5.664
			c-0.125-2.397-0.2-5.621-0.227-9.671c-0.027-4.05-0.064-9.463-0.109-16.24c-0.041-6.26-0.075-11.358-0.102-15.293
			c-0.026-3.934,0.006-7.143,0.098-9.627c0.092-2.483,0.242-4.487,0.448-6.011C223.786,71.997,224.127,70.514,224.606,69.07z
			 M264.544,63.766c-0.885-2.584-2.43-4.894-4.637-6.93c-2.207-2.035-4.368-3.141-6.481-3.32c-2.6-0.057-4.78,0.103-6.537,0.479
			c-1.759,0.378-3.256,1.31-4.49,2.795c-1.504,2.04-2.747,4.433-3.73,7.179c-0.984,2.748-1.721,6.064-2.209,9.952
			c-0.489,3.889-0.77,8.481-0.842,13.778c-0.074,5.299,0.021,11.524,0.287,18.674c0.039,5.859,0.125,10.749,0.26,14.668
			c0.135,3.922,0.373,7.209,0.717,9.865c0.342,2.657,0.804,4.881,1.385,6.671c0.58,1.792,1.31,3.521,2.188,5.185
			c1.26,2.075,2.772,3.643,4.54,4.701c1.767,1.06,3.95,1.415,6.548,1.07c3.406-0.854,6.227-2.263,8.463-4.229
			c2.233-1.963,4.203-5.098,5.908-9.407c0.154-1.112,0.336-2.315,0.545-3.608c0.207-1.291,0.399-2.898,0.577-4.818
			c0.176-1.921,0.377-4.318,0.602-7.193c0.225-2.877,0.431-6.482,0.618-10.818c0.301-11.769,0.184-21.311-0.354-28.626
			C267.365,72.519,266.245,67.162,264.544,63.766z"/>
		<path fill="#FFFFFF" d="M292.268,54.393c0.83-5.398,2.412-9.936,4.744-13.607c2.332-3.674,5.549-6.528,9.651-8.569
			c1.346-1.099,3.751-1.878,7.216-2.338c3.463-0.46,6.794-0.442,9.993,0.053c3.632,0.495,5.804,1.327,6.517,2.497
			c0.711,1.171,0.4,3.281-0.933,6.332c-1.392,2.601-2.681,4.267-3.866,4.998c-1.188,0.733-2.92,0.762-5.199,0.088
			c-1.844-0.216-3.645-0.163-5.402,0.156c-1.759,0.319-3.312,1.03-4.657,2.128c-0.702,0.381-1.429,1.066-2.181,2.058
			s-1.436,2.131-2.049,3.419c-0.615,1.289-1.107,2.635-1.477,4.034s-0.551,2.703-0.542,3.909c0.02,2.929,1.438,6.577,4.257,10.946
			c2.818,4.367,6.299,8.433,10.44,12.194c0.872,0.862,2.154,2.229,3.847,4.103c1.69,1.875,3.463,3.636,5.316,5.287
			c1.804,2.463,3.334,4.745,4.596,6.849c1.26,2.104,2.262,4.284,3.008,6.542c0.748,2.26,1.251,4.692,1.512,7.302
			c0.262,2.61,0.322,5.591,0.182,8.942c0.039,5.803-0.621,10.445-1.979,13.932c-1.358,3.487-3.383,6.615-6.072,9.387
			c-0.967,1.163-2.3,2.274-3.999,3.333c-1.699,1.061-3.521,2.05-5.464,2.968c-1.944,0.92-3.93,1.744-5.955,2.474
			c-2.027,0.729-3.825,1.284-5.393,1.664c-0.975,0.13-2.14,0.127-3.494-0.01c-1.354-0.136-2.752-0.368-4.188-0.694
			c-1.439-0.327-2.782-0.766-4.031-1.318c-1.25-0.553-2.201-1.159-2.855-1.82c-0.708-0.365-1.498-1.036-2.37-2.014
			c-0.874-0.976-1.652-2.022-2.337-3.139c-0.686-1.116-1.221-2.18-1.605-3.193c-0.386-1.012-0.445-1.795-0.178-2.348
			c0.158-0.711,0.912-1.385,2.262-2.025c1.349-0.639,2.755-1.111,4.215-1.422c1.461-0.309,2.76-0.409,3.898-0.302
			c1.138,0.107,1.628,0.517,1.471,1.227c0.002,0.288,0.341,0.546,1.02,0.771c0.68,0.227,1.561,0.427,2.645,0.598
			c1.085,0.172,2.277,0.258,3.577,0.258s2.519-0.075,3.655-0.227c1.789,0.279,3.707-0.247,5.758-1.584
			c2.049-1.335,3.773-2.584,5.175-3.748c2.257-2.715,3.437-6.393,3.542-11.035c0.104-4.64-0.535-9.053-1.917-13.239
			c-0.491-0.625-1.448-1.819-2.867-3.586c-1.421-1.765-2.99-3.656-4.71-5.67c-1.719-2.013-3.412-3.93-5.075-5.75
			c-1.665-1.818-2.935-3.189-3.806-4.107c-0.709-0.597-1.554-1.445-2.536-2.553c-0.981-1.104-1.964-2.283-2.948-3.532
			c-0.982-1.249-1.899-2.492-2.746-3.731c-0.85-1.237-1.492-2.345-1.932-3.321c-2.302-4.005-3.722-7.697-4.258-11.075
			C291.204,63.502,291.379,59.34,292.268,54.393z"/>
	</g>
	<g>
		<path fill="#009FD9" d="M48.924,201.377c-0.002-0.269,0.21-0.548,0.635-0.84c0.424-0.291,0.906-0.473,1.443-0.545
			c1.039-0.674,2.095-1.108,3.17-1.301c1.073-0.194,1.753-0.175,2.04,0.056c0.257,0.537,0.678,2.017,1.263,4.439
			c0.585,2.422,1.197,5.152,1.834,8.189c0.637,3.037,1.227,6.056,1.769,9.056c0.542,2.999,0.896,5.311,1.065,6.933
			c0.008,1.106,0.321,3.097,0.942,5.968c0.619,2.871,1.209,5.932,1.769,9.181c0.651,2.834,1.239,5.601,1.764,8.301
			c0.523,2.698,0.951,5.151,1.282,7.355c0.331,2.206,0.565,4.088,0.702,5.647c0.136,1.561,0.16,2.615,0.068,3.163
			c-0.156,0.323-0.541,0.685-1.155,1.085c-0.614,0.4-1.3,0.777-2.057,1.129c-0.756,0.353-1.475,0.624-2.153,0.814
			c-0.679,0.191-1.145,0.221-1.399,0.085c-0.288-0.498-0.652-1.667-1.091-3.506c-0.439-1.837-0.795-4.265-1.069-7.284
			c-0.007-1.106-0.215-2.598-0.623-4.475c-0.408-1.876-0.744-3.634-1.008-5.277c-0.421-1.589-0.771-2.818-1.045-3.688
			c-0.275-0.869-0.603-1.48-0.984-1.833c-0.382-0.352-0.905-0.534-1.569-0.547c-0.665-0.013-1.565,0.058-2.702,0.209
			c-1.202,0.159-2.126,0.324-2.773,0.493c-0.647,0.17-1.159,0.456-1.536,0.858c-0.377,0.403-0.65,0.984-0.818,1.745
			c-0.169,0.762-0.375,1.847-0.619,3.255c-0.273,1.715-0.615,3.8-1.026,6.253c-0.411,2.455-0.737,4.521-0.979,6.197
			c-0.515,3.392-0.983,5.577-1.403,6.556c-0.42,0.979-1.152,1.538-2.194,1.677c-0.285,0.038-0.728,0.097-1.327,0.177
			c-0.601,0.079-1.027,0.136-1.28,0.17c-1.326,0.478-2.141,0.343-2.446-0.406c-0.306-0.748-0.199-2.55,0.32-5.405
			c0.238-2.246,0.561-4.723,0.971-7.429c0.409-2.705,0.865-5.401,1.369-8.087c0.505-2.686,1.033-5.265,1.586-7.738
			c0.553-2.474,1.091-4.584,1.618-6.333c0.493-1.979,0.939-3.842,1.338-5.591c0.399-1.747,0.807-3.564,1.221-5.449
			c0.414-1.884,0.867-3.958,1.358-6.223c0.49-2.263,1.059-4.898,1.703-7.904c0.238-2.247,0.564-4.246,0.98-5.995
			C48.293,202.762,48.642,201.717,48.924,201.377z M53.786,226.259c-0.009-1.375-0.105-2.797-0.289-4.268
			c-0.184-1.468-0.278-2.622-0.284-3.461c-0.004-0.536-0.181-1.067-0.533-1.591c-0.158,0.021-0.415,0.743-0.769,2.166
			c-0.354,1.424-0.715,3.05-1.082,4.878c-0.367,1.827-0.72,3.612-1.055,5.351c-0.337,1.74-0.55,2.952-0.641,3.635
			c0.006,0.839,0.111,1.312,0.318,1.418c0.206,0.107,0.973,0.072,2.301-0.104c1.297,0.129,2.057,0.129,2.277-0.001
			s0.328-0.613,0.323-1.452c-0.003-0.536-0.098-1.413-0.279-2.632C53.892,228.98,53.795,227.667,53.786,226.259z"/>
		<path fill="#009FD9" d="M83.541,199.045c0.66-0.624,1.28-1.16,1.863-1.607c0.582-0.446,1.267-0.839,2.056-1.179
			c0.788-0.339,1.751-0.668,2.888-0.987c1.136-0.319,2.573-0.677,4.31-1.077c2.242-0.565,3.986-0.981,5.234-1.248
			s2.14-0.335,2.679-0.205s0.778,0.5,0.719,1.113c-0.06,0.612-0.274,1.497-0.646,2.653c-0.273,1.747-0.779,2.897-1.519,3.449
			c-0.74,0.551-2.168,0.967-4.285,1.248c-2.402,0.319-4.154,0.771-5.257,1.354c-1.104,0.582-2.171,1.647-3.205,3.194
			c-1.318,1.586-2.326,3.339-3.025,5.261c-0.699,1.924-1.434,4.345-2.205,7.267c-0.8,3.363-1.236,6.769-1.307,10.219
			c-0.072,3.451,0.17,6.775,0.73,9.974c0.559,3.199,1.4,6.192,2.526,8.98c1.125,2.786,2.501,5.18,4.128,7.179
			c1.338,1.535,2.846,2.451,4.525,2.748c1.679,0.298,3.715-0.148,6.111-1.341c1.577-0.746,2.847-1.134,3.812-1.161
			c0.964-0.027,1.987,0.442,3.07,1.405c0.507,0.235,0.991,0.548,1.453,0.94s0.693,0.722,0.694,0.99
			c0.002,0.302-0.548,0.812-1.65,1.528c-1.103,0.717-2.314,1.584-3.635,2.598c-1.229,0.768-2.213,1.376-2.953,1.827
			c-0.741,0.45-1.402,0.8-1.986,1.044c-0.583,0.247-1.175,0.408-1.775,0.488c-0.601,0.079-1.36,0.098-2.277,0.05
			c-2.15,0.286-3.977,0.118-5.483-0.505c-1.506-0.622-3.055-1.685-4.646-3.185c-2.165-1.961-4.113-4.849-5.846-8.664
			c-1.733-3.813-3.013-8.2-3.836-13.161c-0.688-3.534-0.974-7.247-0.857-11.14c0.117-3.893,0.573-7.695,1.372-11.41
			c0.797-3.714,1.897-7.184,3.298-10.408C80.016,204.053,81.658,201.308,83.541,199.045z"/>
		<path fill="#009FD9" d="M111.431,219.71c0.053-6.317,0.107-11.275,0.162-14.875c0.055-3.599,0.124-6.327,0.206-8.185
			c0.083-1.856,0.185-3.078,0.308-3.665c0.122-0.587,0.308-1.031,0.561-1.333c0.47-0.566,1.4-0.941,2.791-1.127
			c1.39-0.185,2.577-0.09,3.561,0.283c0.096,0.121,0.176,0.396,0.242,0.824c0.066,0.427,0.137,1.551,0.213,3.37
			c0.075,1.818,0.165,4.635,0.27,8.447c0.104,3.812,0.243,9.182,0.415,16.108c0.047,7.11,0.084,12.594,0.11,16.45
			c0.026,3.857,0.076,6.737,0.153,8.64c0.076,1.902,0.187,3.13,0.333,3.682s0.346,1.062,0.604,1.531
			c0.702,1.082,1.72,1.853,3.051,2.313s2.724,0.645,4.178,0.553c1.454-0.093,2.851-0.462,4.192-1.11
			c1.339-0.647,2.385-1.542,3.137-2.684c0.469-0.666,0.851-1.539,1.145-2.618c0.293-1.079,0.512-2.61,0.657-4.593
			c0.145-1.982,0.207-4.56,0.185-7.729c-0.021-3.17-0.095-7.214-0.223-12.131c-0.017-2.549-0.066-5.127-0.146-7.734
			c-0.081-2.607-0.161-5.064-0.239-7.37c-0.079-2.306-0.141-4.388-0.184-6.245c-0.045-1.856-0.069-3.305-0.077-4.345
			c-0.14-2.028-0.198-3.624-0.174-4.785c0.023-1.16,0.176-2.037,0.457-2.628c0.28-0.591,0.744-0.963,1.392-1.117
			c0.647-0.152,1.523-0.252,2.631-0.298c0.727-0.097,1.415-0.071,2.064,0.077c0.648,0.149,1.101,0.325,1.355,0.524
			c0.333,2.608,0.506,4.816,0.519,6.628c0.006,0.905,0.037,2.01,0.093,3.311c0.056,1.302,0.137,2.668,0.241,4.097
			c0.105,1.43,0.217,2.876,0.337,4.336c0.12,1.462,0.248,2.821,0.383,4.078c0.115,2.973,0.192,6.262,0.232,9.863
			c0.04,3.604,0.024,7.081-0.049,10.431s-0.188,6.377-0.343,9.083c-0.156,2.706-0.341,4.644-0.555,5.812
			c-0.946,5.061-2.748,8.842-5.403,11.343c-2.656,2.501-6.165,3.907-10.527,4.218c-5.342,0.475-9.498-0.258-12.468-2.196
			c-2.971-1.938-4.833-5.056-5.589-9.354c-0.007-1.006-0.027-4.05-0.061-9.13C111.535,235.381,111.489,228.464,111.431,219.71z"/>
		<path fill="#009FD9" d="M151.155,222.138c-0.055-8.317-0.083-14.768-0.082-19.35c0.001-4.581,0.089-7.992,0.264-10.23
			c0.175-2.238,0.466-3.662,0.873-4.27c0.407-0.608,1.005-1.115,1.793-1.522c0.755-0.503,1.875-0.86,3.361-1.075
			c1.485-0.214,3.113-0.296,4.885-0.246c1.771,0.05,3.575,0.214,5.412,0.49c1.835,0.276,3.468,0.655,4.895,1.137
			c4.628,1.6,8.008,4.575,10.141,8.924c2.132,4.35,3.099,10.634,2.901,18.85c0.015,2.214,0.006,4.48-0.026,6.802
			c-0.032,2.319-0.172,3.898-0.419,4.738c-0.395,2.537-1.05,5.065-1.965,7.587c-0.917,2.521-2.031,4.909-3.344,7.165
			c-1.313,2.256-2.771,4.312-4.371,6.17s-3.298,3.375-5.093,4.553c-0.787,0.542-1.835,1.15-3.143,1.828
			c-1.308,0.677-2.632,1.306-3.972,1.888c-1.341,0.58-2.595,1.065-3.762,1.455c-1.168,0.391-1.989,0.534-2.464,0.428
			c-0.791,0.105-1.638-0.142-2.543-0.744c-0.905-0.601-1.615-1.422-2.127-2.462c-0.161-0.381-0.285-1.145-0.371-2.292
			c-0.087-1.146-0.17-2.923-0.25-5.33c-0.079-2.405-0.164-5.583-0.253-9.531C151.402,233.15,151.291,228.162,151.155,222.138z
			 M178.396,216.355c-0.025-3.823-0.237-7.043-0.634-9.659s-1.06-4.776-1.988-6.483c-0.929-1.706-2.155-3.054-3.68-4.043
			c-1.525-0.988-3.428-1.752-5.708-2.288c-4.084-0.565-6.644-0.226-7.679,1.021c-0.156,0.322-0.216,3.184-0.18,8.583
			c0.036,5.4,0.124,11.305,0.261,17.714c0.137,6.411,0.311,12.295,0.521,17.656c0.209,5.358,0.458,8.153,0.744,8.384
			c0.255,0.269,0.643,0.317,1.163,0.147c0.521-0.17,1.68-0.794,3.475-1.871c2.301-1.111,4.324-2.579,6.066-4.406
			c1.743-1.825,3.129-3.915,4.157-6.266c0.748-1.576,1.348-2.965,1.798-4.167c0.45-1.2,0.806-2.447,1.066-3.741
			c0.26-1.293,0.432-2.759,0.516-4.399C178.378,220.897,178.412,218.838,178.396,216.355z"/>
		<path fill="#009FD9" d="M189.121,195.545c0.222-4.595,0.358-7.919,0.408-9.973c0.049-2.054,0.215-3.251,0.498-3.591
			c0.25-0.536,0.587-0.976,1.011-1.317c0.425-0.342,1.269-0.596,2.533-0.764c1.011-0.135,1.873-0.141,2.585-0.018
			c0.712,0.125,1.212,0.302,1.498,0.531c0.097,0.289,0.151,1.299,0.163,3.025c0.011,1.727-0.022,3.903-0.099,6.532
			s-0.201,5.565-0.368,8.811c-0.168,3.245-0.353,6.492-0.552,9.741c0.007,0.973-0.017,2.242-0.069,3.811
			c-0.053,1.568-0.113,3.305-0.179,5.21c-0.066,1.906-0.108,3.892-0.126,5.958c-0.018,2.067-0.02,4.106-0.006,6.119
			c-0.139,3.006-0.264,5.506-0.377,7.501c-0.114,1.996-0.229,3.664-0.346,5.007c-0.118,1.342-0.238,2.465-0.358,3.37
			c-0.12,0.905-0.225,1.767-0.314,2.584c-0.277,1.145-0.61,2.12-1,2.928s-0.71,1.362-0.961,1.663
			c-0.504,0.369-1.19,0.561-2.06,0.575c-0.87,0.016-1.543-0.348-2.023-1.09c-0.285-0.196-0.494-0.421-0.621-0.673
			c-0.128-0.252-0.227-0.775-0.295-1.572c-0.069-0.797-0.108-2.007-0.119-3.635c-0.011-1.626-0.026-3.932-0.046-6.917
			c-0.011-1.609-0.03-3.377-0.059-5.304c-0.03-1.926-0.042-3.847-0.039-5.76c0.003-1.914,0.038-3.748,0.105-5.502
			c0.067-1.755,0.176-3.246,0.326-4.476c0.086-1.32,0.186-2.928,0.3-4.823c0.114-1.895,0.211-3.871,0.292-5.93
			c0.081-2.058,0.154-4.132,0.219-6.222S189.133,197.322,189.121,195.545z"/>
		<path fill="#009FD9" d="M201.961,186.035c-0.007-1.107,0.316-2.399,0.971-3.879c0.654-1.48,1.374-2.557,2.16-3.233
			c0.379-0.15,0.789-0.297,1.231-0.44c0.441-0.142,1.081-0.286,1.918-0.43c0.838-0.145,1.92-0.314,3.246-0.508
			c1.328-0.193,3.049-0.43,5.167-0.711c3.413-0.453,5.933-0.764,7.562-0.929c1.627-0.166,2.441-0.114,2.443,0.153
			c0.252-0.033,0.5,0.295,0.742,0.984c0.241,0.69,0.365,1.437,0.37,2.242c0.102,0.993,0.146,1.76,0.134,2.297
			c-0.013,0.539-0.285,0.961-0.821,1.268s-1.403,0.548-2.604,0.724s-2.908,0.411-5.119,0.704c-3.16,0.42-5.355,0.83-6.586,1.228
			c-1.23,0.399-1.846,0.732-1.844,1.001c-0.282,0.339-0.436,1.099-0.459,2.275c-0.023,1.18-0.027,2.875-0.014,5.088
			c0.011,1.543,0.043,2.73,0.096,3.562s0.238,1.421,0.557,1.764c0.318,0.344,0.842,0.492,1.568,0.446
			c0.728-0.047,1.754-0.157,3.082-0.334c1.578-0.478,2.865-0.69,3.861-0.639c0.998,0.053,1.639,0.193,1.925,0.425
			c0.254,0.134,0.446,0.527,0.577,1.182s0.199,1.367,0.204,2.139s-0.054,1.492-0.176,2.162c-0.122,0.671-0.309,1.073-0.562,1.208
			c-0.281,0.34-0.983,0.702-2.104,1.085c-1.121,0.384-2.344,0.664-3.671,0.84c-1.327,0.177-2.354,0.405-3.079,0.687
			s-1.244,0.945-1.552,1.993c-0.31,1.049-0.48,2.674-0.513,4.877c-0.033,2.203-0.036,5.317-0.01,9.342
			c0.016,2.247,0.029,4.36,0.043,6.339s0.032,3.721,0.059,5.228c0.025,1.507,0.08,2.717,0.166,3.628
			c0.085,0.912,0.207,1.408,0.365,1.488c0.002,0.302,0.77,0.368,2.303,0.197c1.533-0.17,3.752-0.448,6.66-0.835
			c2.211-0.293,3.926-0.496,5.143-0.606c1.217-0.112,2.111-0.104,2.682,0.021c0.569,0.125,0.904,0.417,1.002,0.873
			c0.098,0.458,0.149,1.089,0.154,1.894c0.01,1.408-0.031,2.445-0.121,3.112s-0.389,1.168-0.892,1.504
			c-4.042,0.906-7.375,1.532-9.997,1.881c-2.273,0.471-4.051,0.824-5.33,1.061c-1.279,0.237-2.299,0.39-3.057,0.456
			c-0.76,0.068-1.36,0.056-1.804-0.037c-0.444-0.092-0.919-0.255-1.427-0.49c-0.791-0.163-1.426-0.447-1.903-0.855
			c-0.478-0.405-0.717-0.76-0.719-1.062c-0.288-0.498-0.552-3.342-0.792-8.529c-0.241-5.188-0.393-12.543-0.456-22.068
			c-0.027-4.024-0.084-7.886-0.172-11.583c-0.088-3.698-0.181-7.001-0.279-9.908c-0.099-2.908-0.178-5.271-0.238-7.094
			C201.994,187.398,201.963,186.337,201.961,186.035z"/>
		<path fill="#009FD9" d="M262.132,195.566c-0.029-4.395-0.054-8.092-0.074-11.094c-0.021-3-0.028-5.459-0.024-7.373
			c0.002-1.913,0.04-3.318,0.113-4.219c0.072-0.898,0.188-1.442,0.346-1.631c-0.002-0.27,0.336-0.465,1.016-0.589
			c0.678-0.123,1.54-0.255,2.582-0.393c1.043-0.139,1.825-0.226,2.348-0.262c0.521-0.035,0.783,0.08,0.785,0.349
			c0.256,0.537,0.504,2.082,0.742,4.635s0.369,5.739,0.396,9.562c0.012,1.812,0.026,4.034,0.044,6.666
			c0.018,2.634,0.045,5.458,0.08,8.475c0.037,3.016,0.104,6.112,0.205,9.288c0.1,3.176,0.238,6.195,0.416,9.058
			c0.092,13.783,0.141,20.944,0.144,21.48c-0.282,0.475-0.737,0.955-1.366,1.44c-0.63,0.486-1.322,0.898-2.079,1.233
			s-1.483,0.566-2.178,0.691c-0.695,0.126-1.233,0.063-1.614-0.188c-0.285-0.063-0.74-0.599-1.363-1.607
			c-0.623-1.008-1.344-2.339-2.161-3.992c-0.817-1.654-1.7-3.552-2.647-5.691s-1.872-4.408-2.773-6.806
			c-0.549-1.571-1.287-3.354-2.218-5.345s-1.778-3.489-2.544-4.496c-0.672-1.253-1.545-2.757-2.615-4.512
			c-1.072-1.754-2.135-3.417-3.188-4.989c-1.054-1.571-1.988-2.915-2.802-4.033c-0.814-1.117-1.27-1.67-1.363-1.657
			c-0.54-0.196-0.822,0.118-0.849,0.943c-0.025,0.826,0.114,2.729,0.418,5.71c0.125,4.414,0.255,8.669,0.394,12.762
			c0.138,4.095,0.248,7.739,0.334,10.933c0.084,3.194,0.125,5.782,0.123,7.763c-0.004,1.981-0.051,3.028-0.145,3.142
			c-0.283,0.34-0.74,0.619-1.371,0.836c-0.631,0.219-1.303,0.374-2.014,0.469c-0.71,0.094-1.383,0.117-2.015,0.066
			c-0.634-0.049-1.077-0.209-1.331-0.478c-0.542-0.465-0.96-3.851-1.254-10.156c-0.297-6.304-0.469-13.204-0.519-20.7
			s0.03-14.43,0.241-20.803c0.21-6.372,0.582-9.878,1.115-10.52c0.251-0.301,0.637-0.604,1.156-0.909
			c0.521-0.304,1.175-0.508,1.965-0.612c1.547-0.475,2.725-0.463,3.535,0.033c0.81,0.497,1.362,1.548,1.658,3.152
			c0.389,1.459,0.801,2.807,1.236,4.041c0.435,1.234,1.02,2.541,1.758,3.92c0.736,1.38,1.656,2.944,2.759,4.694
			c1.103,1.751,2.517,3.87,4.241,6.359c0.894,1.292,1.812,2.697,2.756,4.216c0.943,1.521,1.847,3.046,2.711,4.575
			c0.863,1.53,1.641,3.005,2.33,4.424s1.243,2.654,1.662,3.706c0.256,0.538,0.608,1.229,1.057,2.076
			c0.094-0.113,0.176-0.82,0.246-2.123c0.07-1.302,0.1-3.017,0.085-5.146s-0.071-4.599-0.168-7.405
			C262.355,201.729,262.249,198.74,262.132,195.566z"/>
		<path fill="#009FD9" d="M276.533,171.046c0.095-0.013,0.403-0.078,0.925-0.198c0.521-0.119,1.381-0.325,2.581-0.62
			c1.2-0.293,2.811-0.675,4.831-1.145s4.596-1.063,7.721-1.781c0.506-0.067,1.667-0.222,3.484-0.463
			c1.816-0.241,3.768-0.5,5.854-0.777c1.926-0.356,3.42-0.596,4.479-0.721c1.059-0.123,1.826-0.065,2.302,0.173
			c0.476,0.239,0.764,0.671,0.863,1.295c0.099,0.625,0.151,1.491,0.159,2.598c0.007,1.005-0.028,1.773-0.104,2.304
			c-0.075,0.531-0.301,0.964-0.679,1.298c-0.378,0.336-0.992,0.62-1.845,0.85c-0.853,0.231-2.037,0.497-3.553,0.799
			c-1.326,0.346-2.336,0.664-3.03,0.957c-0.693,0.293-1.22,0.834-1.578,1.619c-0.358,0.786-0.597,1.968-0.712,3.544
			s-0.211,3.813-0.287,6.71c-0.146,1.699-0.252,3.769-0.314,6.21c-0.062,2.442-0.092,5.065-0.09,7.867
			c0.002,2.803,0.014,5.654,0.033,8.555c0.02,2.901,0.038,5.66,0.056,8.276c0.046,6.874,0.055,11.74,0.026,14.598
			c-0.029,2.857-0.169,4.437-0.42,4.738c-0.156,0.322-0.549,0.627-1.18,0.912s-1.333,0.529-2.105,0.732
			c-0.774,0.203-1.533,0.354-2.274,0.453c-0.743,0.099-1.304,0.09-1.685-0.028c-0.159-0.079-0.28-0.482-0.364-1.21
			c-0.083-0.728-0.141-2.146-0.17-4.257c-0.03-2.111-0.058-5.086-0.083-8.927c-0.026-3.839-0.061-8.929-0.103-15.268
			c-0.025-3.823-0.034-7.531-0.026-11.125c0.007-3.592,0.041-6.802,0.102-9.63c0.059-2.828,0.115-5.151,0.167-6.971
			c0.051-1.82,0.075-2.881,0.073-3.183c0.092-0.549,0.137-0.966,0.135-1.251c-0.002-0.284-0.186-0.454-0.55-0.506
			c-0.364-0.053-0.965,0.011-1.802,0.188c-0.836,0.179-2.014,0.419-3.529,0.721c-1.832,0.411-3.245,0.666-4.24,0.765
			c-0.996,0.099-1.732,0.028-2.207-0.21c-0.477-0.24-0.797-0.684-0.958-1.333c-0.163-0.65-0.296-1.522-0.397-2.617
			c-0.293-1.335-0.355-2.243-0.184-2.718C276.024,171.793,276.251,171.386,276.533,171.046z"/>
		<path fill="#009FD9" d="M312.59,171.342c-0.008-1.107,0.316-2.399,0.971-3.879c0.654-1.48,1.373-2.557,2.16-3.233
			c0.379-0.15,0.789-0.297,1.23-0.439c0.441-0.142,1.081-0.286,1.918-0.431c0.838-0.145,1.92-0.314,3.247-0.508
			s3.049-0.43,5.167-0.711c3.412-0.453,5.932-0.764,7.561-0.929c1.627-0.166,2.441-0.114,2.443,0.153
			c0.253-0.033,0.5,0.295,0.742,0.984c0.242,0.69,0.365,1.437,0.371,2.242c0.102,0.993,0.146,1.76,0.134,2.297
			c-0.013,0.539-0.286,0.961-0.822,1.268s-1.403,0.548-2.604,0.724c-1.201,0.177-2.907,0.411-5.119,0.704
			c-3.16,0.42-5.354,0.83-6.586,1.228c-1.23,0.399-1.845,0.732-1.843,1.001c-0.282,0.34-0.437,1.099-0.46,2.275
			c-0.023,1.18-0.027,2.875-0.014,5.088c0.011,1.543,0.043,2.73,0.096,3.562c0.053,0.833,0.238,1.421,0.557,1.764
			c0.318,0.344,0.842,0.492,1.568,0.446c0.728-0.047,1.755-0.157,3.082-0.334c1.578-0.478,2.865-0.69,3.861-0.639
			c0.998,0.053,1.639,0.193,1.926,0.425c0.253,0.134,0.445,0.527,0.576,1.182s0.199,1.367,0.204,2.139s-0.054,1.492-0.175,2.162
			c-0.123,0.672-0.31,1.073-0.562,1.208c-0.282,0.34-0.983,0.702-2.104,1.085c-1.121,0.384-2.345,0.664-3.671,0.84
			c-1.328,0.177-2.354,0.405-3.08,0.687s-1.243,0.945-1.552,1.993c-0.31,1.049-0.48,2.675-0.513,4.877
			c-0.033,2.203-0.036,5.317-0.01,9.342c0.016,2.247,0.029,4.36,0.043,6.339s0.032,3.721,0.059,5.228
			c0.025,1.507,0.081,2.717,0.166,3.628c0.086,0.912,0.207,1.408,0.366,1.488c0.002,0.302,0.769,0.368,2.302,0.197
			c1.533-0.17,3.752-0.448,6.66-0.835c2.211-0.293,3.926-0.496,5.143-0.606c1.217-0.111,2.111-0.104,2.682,0.021
			c0.569,0.125,0.904,0.417,1.002,0.873c0.098,0.458,0.15,1.089,0.155,1.894c0.009,1.408-0.031,2.445-0.122,3.112
			c-0.09,0.667-0.388,1.168-0.891,1.504c-4.043,0.906-7.376,1.532-9.998,1.881c-2.273,0.472-4.051,0.824-5.33,1.061
			c-1.279,0.237-2.299,0.39-3.057,0.456c-0.76,0.068-1.359,0.056-1.803-0.037c-0.444-0.092-0.92-0.255-1.428-0.49
			c-0.791-0.163-1.426-0.447-1.902-0.855c-0.478-0.405-0.717-0.76-0.719-1.062c-0.289-0.497-0.553-3.342-0.793-8.529
			s-0.392-12.543-0.455-22.068c-0.027-4.024-0.085-7.886-0.173-11.583c-0.087-3.698-0.181-7.001-0.278-9.908
			c-0.1-2.907-0.178-5.271-0.238-7.093C312.624,172.705,312.592,171.644,312.59,171.342z"/>
	</g>
	<g>
		<path fill="#009FD9" d="M19.982,177.164c-4.234,7.524-10.91,11.645-17.21,17.235c-1.68,1.49,0.606,4.513,2.419,3.135
			c6.815-5.179,15.517-10.331,18.597-18.767C24.61,176.517,21.12,175.143,19.982,177.164z"/>
	</g>
	<g>
		<path fill="#009FD9" d="M23.979,120.193c-7.932-0.375-14.351-4.782-21.447-7.754c-2.21-0.926-3.532,2.611-1.588,3.77
			c6.871,4.094,14.925,7.757,23.035,7.851C26.484,124.09,26.456,120.311,23.979,120.193z"/>
	</g>
	<g>
		<path fill="#009FD9" d="M20.681,146.559c-5.497-0.065-11.015,0.656-16.497,1.012c-2.626,0.17-2.66,4.006,0,4.102
			c5.503,0.195,11-0.962,16.497-1.188C23.2,150.379,23.219,146.59,20.681,146.559z"/>
	</g>
	<g>
		<path fill="#009FD9" d="M361.444,64.271c-5.36,4.951-10.802,9.718-16.443,14.35c-2.024,1.662,0.84,4.406,2.843,2.844
			c5.718-4.461,11.56-8.96,16.55-14.244C366.244,65.26,363.418,62.448,361.444,64.271z"/>
	</g>
	<g>
		<path fill="#009FD9" d="M370.05,101.086c-5.68,0.896-11.255,2.08-17.03,2.203c-2.636,0.057-2.644,4.107,0,4.096
			c6.06-0.025,12.266-0.796,18.162-2.195C373.904,104.544,372.697,100.668,370.05,101.086z"/>
	</g>
	<g>
		<path fill="#009FD9" d="M374.478,141.791c-6.471-2.426-12.129-6.572-18.723-8.702c-2.514-0.812-3.438,2.963-1.071,3.884
			c6.452,2.508,12.089,6.681,18.669,8.895C375.966,146.746,376.99,142.732,374.478,141.791z"/>
	</g>
</g>
</svg>
